<?xml version="1.0" encoding="UTF-8" standalone="no"?>
<!-- Created with Inkscape (http://www.inkscape.org/) -->

<svg
   width="100"
   height="50"
   viewBox="0 0 26.458333 13.229167"
   version="1.1"
   id="svg1"
   inkscape:version="1.4 (e7c3feb100, 2024-10-09)"
   sodipodi:docname="player.svg"
   xmlns:inkscape="http://www.inkscape.org/namespaces/inkscape"
   xmlns:sodipodi="http://sodipodi.sourceforge.net/DTD/sodipodi-0.dtd"
   xmlns="http://www.w3.org/2000/svg"
   xmlns:svg="http://www.w3.org/2000/svg">
  <sodipodi:namedview
     id="namedview1"
     pagecolor="#ffffff"
     bordercolor="#000000"
     borderopacity="0.25"
     inkscape:showpageshadow="2"
     inkscape:pageopacity="0.0"
     inkscape:pagecheckerboard="0"
     inkscape:deskcolor="#d1d1d1"
     inkscape:document-units="mm"
     inkscape:zoom="11.474186"
     inkscape:cx="51.811953"
     inkscape:cy="28.803785"
     inkscape:window-width="1920"
     inkscape:window-height="1016"
     inkscape:window-x="0"
     inkscape:window-y="0"
     inkscape:window-maximized="1"
     inkscape:current-layer="layer1" />
  <defs
     id="defs1" />
  <g
     inkscape:label="Layer 1"
     inkscape:groupmode="layer"
     id="layer1">
    <path
       id="rect2"
       style="fill:#c87137;stroke:#ffffff;stroke-width:3.2743;stroke-opacity:0"
       d="m 2.1166667,4.5400641 h 2.38125 V 11.90625 h -2.38125 z"
       sodipodi:nodetypes="ccccc" />
    <path
       id="rect4"
       style="fill:#333333;stroke:#ffffff;stroke-width:3.2743;stroke-opacity:0"
       d="M 0.26458332,11.1125 H 2.6458333 v 2.116667 H 0.26458332 Z"
       sodipodi:nodetypes="ccccc" />
    <path
       id="rect4-5"
       style="fill:#333333;stroke:#ffffff;stroke-width:3.2743;stroke-opacity:0"
       d="M 3.96875,11.1125 H 6.35 v 2.116667 H 3.96875 Z"
       sodipodi:nodetypes="ccccc" />
    <path
       id="rect1"
       style="fill:#ffccaa;stroke:#ffffff;stroke-width:3.2743;stroke-opacity:0"
       d="m 1.5875,1.1444468 c 0.9978062,-0.99780623 3.2355271,-0.99780623 4.2333333,0 0.8134513,0.8134513 0.8134513,2.6377303 0,3.4511816 -0.9978062,0.9978062 -3.2355271,0.9978062 -4.2333333,0 -0.8134513,-0.8134513 -0.8134513,-2.6377303 0,-3.4511816 z"
       sodipodi:nodetypes="sssss" />
    <path
       id="rect2-6"
       style="fill:#c87137;stroke:#ffffff;stroke-width:3.2743;stroke-opacity:0"
       d="m 15.345834,4.5401339 h 2.38125 v 7.3661871 h -2.38125 z"
       sodipodi:nodetypes="ccccc" />
    <path
       id="rect4-2"
       style="fill:#333333;stroke:#ffffff;stroke-width:3.2743;stroke-opacity:0"
       d="M 13.49375,10.583333 H 15.875 V 12.7 h -2.38125 z"
       sodipodi:nodetypes="ccccc" />
    <path
       id="rect4-5-6"
       style="fill:#333333;stroke:#ffffff;stroke-width:3.2743;stroke-opacity:0"
       d="m 17.197917,11.112571 h 2.38125 v 2.116667 h -2.38125 z"
       sodipodi:nodetypes="ccccc" />
    <path
       id="rect1-1"
       style="fill:#ffccaa;stroke:#ffffff;stroke-width:3.2743;stroke-opacity:0"
       d="m 14.816667,1.1445166 c 0.997806,-0.99780622 3.235527,-0.99780622 4.233333,0 0.813452,0.8134513 0.813452,2.6377303 0,3.4511816 -0.997806,0.997806 -3.235527,0.997806 -4.233333,0 -0.813451,-0.8134513 -0.813451,-2.6377303 0,-3.4511816 z"
       sodipodi:nodetypes="sssss" />
    <path
       id="rect2-2"
       style="fill:#c87137;stroke:#ffffff;stroke-width:3.2743;stroke-opacity:0"
       d="M 8.7312499,4.5401345 H 11.1125 V 11.90632 H 8.7312499 Z"
       sodipodi:nodetypes="ccccc" />
    <path
       id="rect4-9"
       style="fill:#333333;stroke:#ffffff;stroke-width:3.2743;stroke-opacity:0"
       d="m 6.8791665,11.11257 h 2.38125 v 2.116667 h -2.38125 z"
       sodipodi:nodetypes="ccccc" />
    <path
       id="rect4-5-1"
       style="fill:#333333;stroke:#ffffff;stroke-width:3.2743;stroke-opacity:0"
       d="m 10.583333,10.583333 h 2.38125 V 12.7 h -2.38125 z"
       sodipodi:nodetypes="ccccc" />
    <path
       id="rect1-2"
       style="fill:#ffccaa;stroke:#ffffff;stroke-width:3.2743;stroke-opacity:0"
       d="m 8.2020832,1.1445172 c 0.9978062,-0.99780614 3.2355268,-0.99780614 4.2333328,0 0.813452,0.8134513 0.813452,2.6377303 0,3.4511816 -0.997806,0.9978062 -3.2355266,0.9978062 -4.2333328,0 -0.8134513,-0.8134513 -0.8134513,-2.6377303 0,-3.4511816 z"
       sodipodi:nodetypes="sssss" />
    <path
       id="rect2-20"
       style="fill:#c87137;stroke:#ffffff;stroke-width:3.2743;stroke-opacity:0"
       d="m 21.960417,4.5401344 h 2.38125 V 11.90632 h -2.38125 z"
       sodipodi:nodetypes="ccccc" />
    <path
       id="rect4-23"
       style="fill:#333333;stroke:#ffffff;stroke-width:3.2743;stroke-opacity:0"
       d="m 20.240625,10.583333 h 2.38125 V 12.7 h -2.38125 z"
       sodipodi:nodetypes="ccccc" />
    <path
       id="rect4-5-7"
       style="fill:#333333;stroke:#ffffff;stroke-width:3.2743;stroke-opacity:0"
       d="m 23.944792,10.583333 h 2.38125 V 12.7 h -2.38125 z"
       sodipodi:nodetypes="ccccc" />
    <path
       id="rect1-5"
       style="fill:#ffccaa;stroke:#ffffff;stroke-width:3.2743;stroke-opacity:0"
       d="m 21.43125,1.1445171 c 0.997806,-0.99780626 3.235527,-0.99780626 4.233333,0 0.813452,0.8134513 0.813452,2.6377303 0,3.4511816 -0.997806,0.9978064 -3.235527,0.9978064 -4.233333,0 -0.813451,-0.8134513 -0.813451,-2.6377303 0,-3.4511816 z"
       sodipodi:nodetypes="sssss" />
  </g>
</svg>
